<mxfile host="app.diagrams.net" modified="2021-02-02T20:30:55.533Z" agent="5.0 (Windows NT 10.0; Win64; x64) AppleWebKit/537.36 (KHTML, like Gecko) Chrome/88.0.4324.104 Safari/537.36" etag="Ias2WFrMKm_NhjsqOc9C" version="14.2.9" type="github" pages="2">
  <diagram id="SNN_i0FdVK82FHHx-FIl" name="Page-1">
    <mxGraphModel dx="1422" dy="1862" grid="1" gridSize="10" guides="1" tooltips="1" connect="1" arrows="1" fold="1" page="1" pageScale="1" pageWidth="850" pageHeight="1100" math="0" shadow="0">
      <root>
        <mxCell id="0" />
        <mxCell id="1" parent="0" />
        <object label="Actor" id="0MD750nEABMcFbqzRaFM-1">
          <mxCell style="shape=umlActor;verticalLabelPosition=bottom;verticalAlign=top;outlineConnect=0;html=1;" vertex="1" parent="1">
            <mxGeometry x="70" y="100" width="30" height="60" as="geometry" />
          </mxCell>
        </object>
        <mxCell id="0MD750nEABMcFbqzRaFM-4" value="" style="endArrow=classic;html=1;" edge="1" parent="1" target="0MD750nEABMcFbqzRaFM-6">
          <mxGeometry width="50" height="50" relative="1" as="geometry">
            <mxPoint x="120" y="140" as="sourcePoint" />
            <mxPoint x="210" y="140" as="targetPoint" />
          </mxGeometry>
        </mxCell>
        <mxCell id="0MD750nEABMcFbqzRaFM-5" value="" style="shape=curlyBracket;whiteSpace=wrap;html=1;rounded=1;" vertex="1" parent="1">
          <mxGeometry x="450" y="-120" width="20" height="510" as="geometry" />
        </mxCell>
        <object label="" id="0MD750nEABMcFbqzRaFM-6">
          <mxCell style="ellipse;shape=doubleEllipse;whiteSpace=wrap;html=1;" vertex="1" parent="1">
            <mxGeometry x="160" y="110" width="160" height="60" as="geometry" />
          </mxCell>
        </object>
        <mxCell id="0MD750nEABMcFbqzRaFM-8" style="edgeStyle=orthogonalEdgeStyle;rounded=0;orthogonalLoop=1;jettySize=auto;html=1;" edge="1" parent="1">
          <mxGeometry relative="1" as="geometry">
            <mxPoint x="380" y="140" as="targetPoint" />
            <mxPoint x="320" y="140" as="sourcePoint" />
          </mxGeometry>
        </mxCell>
        <mxCell id="0MD750nEABMcFbqzRaFM-7" value="Withdraw Money" style="text;html=1;strokeColor=none;fillColor=none;align=center;verticalAlign=middle;whiteSpace=wrap;rounded=0;" vertex="1" parent="1">
          <mxGeometry x="190" y="130" width="100" height="20" as="geometry" />
        </mxCell>
      </root>
    </mxGraphModel>
  </diagram>
  <diagram id="3JuQRtHlfed-bcRLQGUG" name="Page-2">
    <mxGraphModel dx="1422" dy="762" grid="1" gridSize="10" guides="1" tooltips="1" connect="1" arrows="1" fold="1" page="1" pageScale="1" pageWidth="850" pageHeight="1100" math="0" shadow="0">
      <root>
        <mxCell id="e9sg7XmWo2hIKwXYMkLT-0" />
        <mxCell id="e9sg7XmWo2hIKwXYMkLT-1" parent="e9sg7XmWo2hIKwXYMkLT-0" />
        <mxCell id="e9sg7XmWo2hIKwXYMkLT-2" value="Object" style="html=1;" vertex="1" parent="e9sg7XmWo2hIKwXYMkLT-1">
          <mxGeometry x="270" y="150" width="110" height="50" as="geometry" />
        </mxCell>
        <mxCell id="e9sg7XmWo2hIKwXYMkLT-3" value="Actor" style="shape=umlActor;verticalLabelPosition=bottom;verticalAlign=top;html=1;outlineConnect=0;" vertex="1" parent="e9sg7XmWo2hIKwXYMkLT-1">
          <mxGeometry x="110" y="140" width="30" height="60" as="geometry" />
        </mxCell>
        <mxCell id="e9sg7XmWo2hIKwXYMkLT-4" value="" style="endArrow=classic;html=1;" edge="1" parent="e9sg7XmWo2hIKwXYMkLT-1">
          <mxGeometry width="50" height="50" relative="1" as="geometry">
            <mxPoint x="150" y="180" as="sourcePoint" />
            <mxPoint x="270" y="180" as="targetPoint" />
          </mxGeometry>
        </mxCell>
        <mxCell id="e9sg7XmWo2hIKwXYMkLT-5" value="Use Case Name" style="edgeLabel;html=1;align=center;verticalAlign=middle;resizable=0;points=[];" vertex="1" connectable="0" parent="e9sg7XmWo2hIKwXYMkLT-4">
          <mxGeometry x="-0.1667" relative="1" as="geometry">
            <mxPoint as="offset" />
          </mxGeometry>
        </mxCell>
        <mxCell id="e9sg7XmWo2hIKwXYMkLT-7" value="" style="endArrow=none;dashed=1;html=1;dashPattern=1 3;strokeWidth=2;" edge="1" parent="e9sg7XmWo2hIKwXYMkLT-1">
          <mxGeometry width="50" height="50" relative="1" as="geometry">
            <mxPoint x="325" y="550" as="sourcePoint" />
            <mxPoint x="324.5" y="200" as="targetPoint" />
          </mxGeometry>
        </mxCell>
        <mxCell id="e9sg7XmWo2hIKwXYMkLT-8" value="Object" style="html=1;" vertex="1" parent="e9sg7XmWo2hIKwXYMkLT-1">
          <mxGeometry x="480" y="150" width="110" height="50" as="geometry" />
        </mxCell>
        <mxCell id="e9sg7XmWo2hIKwXYMkLT-9" value="" style="endArrow=none;dashed=1;html=1;dashPattern=1 3;strokeWidth=2;" edge="1" parent="e9sg7XmWo2hIKwXYMkLT-1">
          <mxGeometry width="50" height="50" relative="1" as="geometry">
            <mxPoint x="535" y="550" as="sourcePoint" />
            <mxPoint x="534.5" y="200" as="targetPoint" />
          </mxGeometry>
        </mxCell>
        <mxCell id="e9sg7XmWo2hIKwXYMkLT-10" value="Object" style="html=1;" vertex="1" parent="e9sg7XmWo2hIKwXYMkLT-1">
          <mxGeometry x="690" y="150" width="110" height="50" as="geometry" />
        </mxCell>
        <mxCell id="e9sg7XmWo2hIKwXYMkLT-11" value="" style="endArrow=none;dashed=1;html=1;dashPattern=1 3;strokeWidth=2;" edge="1" parent="e9sg7XmWo2hIKwXYMkLT-1">
          <mxGeometry width="50" height="50" relative="1" as="geometry">
            <mxPoint x="745" y="550" as="sourcePoint" />
            <mxPoint x="744.5" y="200" as="targetPoint" />
          </mxGeometry>
        </mxCell>
        <mxCell id="e9sg7XmWo2hIKwXYMkLT-12" value="" style="endArrow=classic;html=1;" edge="1" parent="e9sg7XmWo2hIKwXYMkLT-1">
          <mxGeometry width="50" height="50" relative="1" as="geometry">
            <mxPoint x="330" y="240" as="sourcePoint" />
            <mxPoint x="530" y="240" as="targetPoint" />
          </mxGeometry>
        </mxCell>
        <mxCell id="e9sg7XmWo2hIKwXYMkLT-13" value="MethodName(params): RefType" style="edgeLabel;html=1;align=center;verticalAlign=middle;resizable=0;points=[];" vertex="1" connectable="0" parent="e9sg7XmWo2hIKwXYMkLT-12">
          <mxGeometry x="-0.27" relative="1" as="geometry">
            <mxPoint x="22" as="offset" />
          </mxGeometry>
        </mxCell>
        <mxCell id="e9sg7XmWo2hIKwXYMkLT-15" value="" style="html=1;points=[];perimeter=orthogonalPerimeter;" vertex="1" parent="e9sg7XmWo2hIKwXYMkLT-1">
          <mxGeometry x="320" y="400" width="10" height="40" as="geometry" />
        </mxCell>
        <mxCell id="e9sg7XmWo2hIKwXYMkLT-16" value="self call" style="edgeStyle=orthogonalEdgeStyle;html=1;align=left;spacingLeft=2;endArrow=block;rounded=0;entryX=1;entryY=0;" edge="1" target="e9sg7XmWo2hIKwXYMkLT-15" parent="e9sg7XmWo2hIKwXYMkLT-1">
          <mxGeometry relative="1" as="geometry">
            <mxPoint x="325" y="380" as="sourcePoint" />
            <Array as="points">
              <mxPoint x="350" y="380" />
            </Array>
          </mxGeometry>
        </mxCell>
        <mxCell id="e9sg7XmWo2hIKwXYMkLT-17" value="" style="html=1;points=[];perimeter=orthogonalPerimeter;" vertex="1" parent="e9sg7XmWo2hIKwXYMkLT-1">
          <mxGeometry x="320" y="220" width="10" height="80" as="geometry" />
        </mxCell>
      </root>
    </mxGraphModel>
  </diagram>
</mxfile>
